<?xml version="1.0" encoding="UTF-8" standalone="no"?>
<svg
   xmlns:dc="http://purl.org/dc/elements/1.1/"
   xmlns:cc="http://creativecommons.org/ns#"
   xmlns:rdf="http://www.w3.org/1999/02/22-rdf-syntax-ns#"
   xmlns:svg="http://www.w3.org/2000/svg"
   xmlns="http://www.w3.org/2000/svg"
   xmlns:sodipodi="http://sodipodi.sourceforge.net/DTD/sodipodi-0.dtd"
   xmlns:inkscape="http://www.inkscape.org/namespaces/inkscape"
   inkscape:version="1.0 (4035a4fb49, 2020-05-01)"
   sodipodi:docname="signal.svg"
   id="svg4"
   version="1.1"
   width="32"
   viewBox="0 0 32 32"
   height="32">
  <metadata
     id="metadata10">
    <rdf:RDF>
      <cc:Work
         rdf:about="">
        <dc:format>image/svg+xml</dc:format>
        <dc:type
           rdf:resource="http://purl.org/dc/dcmitype/StillImage" />
        <dc:title></dc:title>
      </cc:Work>
    </rdf:RDF>
  </metadata>
  <defs
     id="defs8" />
  <sodipodi:namedview
     inkscape:current-layer="svg4"
     inkscape:window-maximized="1"
     inkscape:window-y="-11"
     inkscape:window-x="-11"
     inkscape:cy="8"
     inkscape:cx="8"
     inkscape:zoom="47.0625"
     showgrid="false"
     id="namedview6"
     inkscape:window-height="1346"
     inkscape:window-width="2160"
     inkscape:pageshadow="2"
     inkscape:pageopacity="0"
     guidetolerance="10"
     gridtolerance="10"
     objecttolerance="10"
     borderopacity="1"
     bordercolor="#666666"
     pagecolor="#ffffff" />
  <path
     style="stroke-width:2;fill:#ffffff;fill-opacity:0.87843138"
     id="path2"
     d="M 8,4 A 2,2 0 0 0 6,6 2,2 0 0 0 8,8 c 8.8602,0 16,7.1398 16,16 a 2,2 0 0 0 2,2 2,2 0 0 0 2,-2 C 28,12.978 19.022,4 8,4 Z m 0,8 a 2,2 0 0 0 -2,2 2,2 0 0 0 2,2 c 4.442,0 8,3.558 8,8 a 2,2 0 0 0 2,2 2,2 0 0 0 2,-2 C 20,17.3964 14.6038,12 8,12 Z m 0,8 a 4,4 0 0 0 -4,4 4,4 0 0 0 4,4 4,4 0 0 0 4,-4 4,4 0 0 0 -4,-4 z" />
</svg>
